<?xml version="1.0" encoding="UTF-8"?><svg id="a" xmlns="http://www.w3.org/2000/svg" width="488.54" height="43.31" viewBox="0 0 488.54 43.31"><path d="M7.68,42.1c-.87,0-1.92.06-2.91.12s-1.91.13-2.67.13c-.31,0-1.11,0-1.11-.62s.44-1,2.28-1.33c1.34-.25,2.78-.45,2.78-4V7.32c0-1.17-2.6-1.05-4.2-1.17-1.42-.15-1.85-.15-1.85-.81,0-1,1.67-1,2.41-1h5.59c1.55,0,3-.12,4.57-.18s3.34-.19,5.32-.19c13,0,23.47,6.42,23.47,21.31,0,9.27-8.52,16.87-19.15,16.87l-14.53-.05ZM11.39,34.38c0,4.32,3.89,6.25,7.9,6.25,4.82,0,16.31-4,16.31-16.56S24.23,5.78,16.58,5.78c-5.07,0-5.19,1.11-5.19,2v26.6Z" fill="#fff" stroke-width="0"/><path d="M46.63,34.53c0-3.77.12-9.52.12-13.17,0-.86-1-1-1.78-1.17-1.49-.37-1.86-.5-1.86-.93s.68-.56,1.54-.56,1.74.13,2.68.13,1.79-.13,2.72-.13.95.3.95,1.17c0,5.51-.12,11-.12,16.51,0,2.54,1.85,4,4.88,4,6.87,0,7.36-2.9,7.42-5.44,0-4.39.13-8.85.13-13.24,0-.74-.31-.74-3.22-1.48-.49-.13-1.78-.5-1.78-1s.67-.5,1.33-.5c1.06,0,2.11.13,3.16.13,1.24,0,2.41-.13,3.65-.13.67-.05,1.25.45,1.3,1.12v.16c0,6.25-.25,12.49-.25,18.74-.04.79.57,1.46,1.36,1.5.08,0,.17,0,.25,0,2.41,0,3.22,0,3.22.62s-.31.62-1.24.74c-4.33.68-6.86,1.23-7.42,1.23s-.5-.44-.5-1v-1.42c0-.49-.12-.74-.44-.74-1,0-3.65,3.65-8.66,3.65-5.84,0-7.44-3.52-7.44-8.78Z" fill="#fff" stroke-width="0"/><path d="M77.55,7c0-3.27-3-2.23-3-3.4,0-.45.44-.56,1.3-.87l4.15-1.62c.32-.1.66-.14,1-.12.31,0,.68.19.68,1.11v25.4c0,.67.12,1,.56,1,.61,0,10.07-5.56,10.07-6.7,0-1.6-2.35-1.6-2.35-2.53,0-.31.49-.62.86-.62,1.3,0,3.15.13,4.76.13s3.4-.13,4.64-.13c.55,0,1.17.13,1.17.74s-2.16,1.12-3,1.49c-1.78.8-11.93,6.69-11.93,7.35.04.34.22.66.5.86l10.71,9.7c2.53,2.29,4.88,2.11,4.88,3,0,.31-.62.62-1.61.62-1.3,0-2.9-.25-4.75-.25-1.61,0-3.09.25-4.58.25-1.3,0-1.85-.07-1.85-.62s.74-.74,1.79-.86c.61-.07,1.17-.45,1.17-.87s-.31-.62-.68-1l-9.33-8.82c-.15-.17-.34-.3-.56-.37-.24,0-.44.07-.44.31v8.78c-.1.9.46,1.75,1.34,2,1,.31,1.78.31,1.78.87s-.8.62-1.42.62c-1.48,0-2.78-.25-4.14-.25s-3.4.25-4.46.25c-.37,0-1.48-.07-1.48-.62s.49-.68,1.11-.87c1.73-.49,3-.3,3-2.9l.11-31.06Z" fill="#fff" stroke-width="0"/><path d="M106.67,27.8c-.12.72-.17,1.44-.12,2.17,0,5.2,1.42,10.34,9,10.34,4.76,0,4.91-2.48,5.88-2.48.27-.03.52.17.55.45,0,0,0,0,0,0h0c0,.45-2.6,5-9,5-6.81,0-10.71-4.83-10.71-12.57,0-5.8,3.57-13.06,11.27-13.06,4.99-.11,9.17,3.75,9.46,8.73,0,1.12-.19,1.42-1.24,1.42h-15.09ZM118.93,22.9c0-2.11-2-3.78-4.58-3.78-4.46,0-7.14,4.33-7.14,6.25,0,.44.13.56,5.39.56s6.33-.79,6.33-3v-.03Z" fill="#fff" stroke-width="0"/><path d="M158.64,3c-1.31-.06-2.57.51-3.4,1.53-.89,1.23-1.33,2.73-1.24,4.25-.11,1.52.31,3.03,1.19,4.27.86.99,2.13,1.52,3.44,1.44.63,0,1.27-.06,1.89-.19.6-.13,1.24-.3,1.89-.5v2.2c-1.31.47-2.69.7-4.08.68-1.94.14-3.83-.6-5.17-2-1.3-1.65-1.94-3.73-1.8-5.83-.03-1.44.27-2.87.87-4.18.54-1.15,1.43-2.11,2.53-2.75,1.19-.65,2.53-.98,3.89-.95,1.51-.01,2.99.33,4.34,1l-.89,2.03c-.53-.25-1.08-.46-1.64-.64-.58-.22-1.2-.34-1.82-.36Z" fill="#fff" stroke-width="0"/><path d="M175.29,16.42h-8.66V1.1h8.66v2.12h-6.16v4.17h5.78v2.09h-5.78v4.81h6.16v2.13Z" fill="#fff" stroke-width="0"/><path d="M192.26,16.42h-3.07l-7.54-12.21h-.08l.05.68c.1,1.33.15,2.52.15,3.57v8h-2.27V1.1h3l7.52,12.15h.06c0-.17,0-.75-.08-1.76s0-1.8,0-2.36V1.13h2.3l-.04,15.29Z" fill="#fff" stroke-width="0"/><path d="M202.69,16.42h-2.5V3.25h-4.51V1.1h11.52v2.15h-4.51v13.17Z" fill="#fff" stroke-width="0"/><path d="M219.29,16.42h-8.66V1.1h8.66v2.12h-6.16v4.17h5.78v2.09h-5.78v4.81h6.16v2.13Z" fill="#fff" stroke-width="0"/><path d="M226,10.3v6.12h-2.5V1.1h4.32c1.55-.12,3.09.27,4.4,1.11.98.82,1.51,2.07,1.42,3.35.03,1.88-1.2,3.55-3,4.08l4.36,6.78h-2.85l-3.66-6.12h-2.49ZM226,8.23h1.74c.9.07,1.79-.15,2.54-.65.54-.49.83-1.2.78-1.93.07-.73-.26-1.44-.85-1.87-.78-.42-1.66-.62-2.55-.56h-1.66v5.01Z" fill="#fff" stroke-width="0"/><path d="M241.82,21.58c-.45,0-.89-.07-1.31-.22v-1.48c.38.14.78.22,1.18.23.49.02.96-.23,1.22-.65.34-.57.58-1.2.69-1.86l2.4-11.33h-2l.14-.71,2.15-.69.25-1.05c.17-1.1.63-2.14,1.33-3,.69-.59,1.58-.89,2.49-.82.34,0,.67.05,1,.12.32.06.64.15.94.27l-.45,1.35c-.45-.18-.94-.29-1.43-.3-.52-.04-1.03.14-1.4.5-.42.54-.69,1.18-.79,1.86l-.23,1.14h2.5l-.26,1.33h-2.49l-2.43,11.5c-.15,1.06-.59,2.06-1.26,2.89-.58.62-1.39.95-2.24.92Z" fill="#fff" stroke-width="0"/><path d="M256.14,4.79c1.17-.06,2.32.38,3.15,1.21.81.88,1.22,2.05,1.15,3.24,0,1.28-.25,2.54-.75,3.72-.43,1.07-1.14,2-2.05,2.7-.83.65-1.86,1-2.91,1-1.17.06-2.32-.37-3.16-1.19-.79-.88-1.2-2.04-1.14-3.23,0-1.29.26-2.57.77-3.75.43-1.07,1.14-2,2.06-2.69.82-.64,1.84-1,2.88-1.01ZM258.62,9c.06-.72-.17-1.44-.62-2-.45-.5-1.1-.78-1.77-.75-.76-.01-1.49.26-2.05.77-.65.58-1.14,1.32-1.41,2.15-.34.99-.5,2.03-.49,3.07-.05.76.18,1.52.66,2.12.49.52,1.19.8,1.91.75.74.01,1.46-.26,2-.76.63-.6,1.1-1.35,1.36-2.18.31-1.03.44-2.1.41-3.17Z" fill="#fff" stroke-width="0"/><path d="M269.16,4.73c.42,0,.85.04,1.26.14l-.42,1.57c-.36-.09-.73-.13-1.1-.13-.65,0-1.28.23-1.79.63-.6.47-1.09,1.07-1.45,1.74-.43.78-.74,1.61-.92,2.48l-1.12,5.26h-1.72l2.45-11.48h1.46l-.23,2.12h.1c.37-.51.79-.99,1.25-1.43.32-.26.68-.48,1.07-.63.36-.17.76-.26,1.16-.27Z" fill="#fff" stroke-width="0"/><path d="M283.89,3c-1.31-.06-2.57.51-3.39,1.53-.89,1.22-1.33,2.71-1.24,4.22-.1,1.52.32,3.03,1.19,4.27.86.99,2.13,1.52,3.44,1.44.63,0,1.27-.06,1.89-.19.61-.13,1.24-.3,1.89-.5v2.23c-1.31.47-2.69.7-4.08.68-1.93.13-3.83-.6-5.17-2-1.3-1.65-1.94-3.73-1.8-5.83-.03-1.44.27-2.87.87-4.18.52-1.18,1.4-2.17,2.51-2.84,1.19-.65,2.53-.98,3.88-.95,1.51-.01,2.99.33,4.34,1l-.87,2.12c-.53-.25-1.08-.46-1.64-.64-.58-.22-1.2-.34-1.82-.36Z" fill="#fff" stroke-width="0"/><path d="M305,8.74c.13,2.1-.54,4.18-1.87,5.81-1.37,1.44-3.31,2.2-5.29,2.08-1.99.13-3.94-.63-5.33-2.06-1.33-1.65-2-3.74-1.86-5.85-.14-2.11.53-4.2,1.87-5.83,1.41-1.41,3.35-2.14,5.34-2,1.98-.12,3.9.64,5.28,2.06,1.32,1.63,1.98,3.7,1.86,5.79ZM293.31,8.74c-.09,1.51.33,3.01,1.18,4.26,1.77,1.86,4.71,1.94,6.57.18.06-.06.12-.12.18-.18.85-1.27,1.25-2.79,1.14-4.31.11-1.51-.29-3.02-1.13-4.28-.83-.98-2.07-1.5-3.35-1.41-1.3-.1-2.57.44-3.4,1.45-.85,1.26-1.26,2.77-1.15,4.29h-.04Z" fill="#fff" stroke-width="0"/><path d="M315.9,16.42l-4.44-12.79h-.09c.12,1.9.18,3.68.18,5.34v7.45h-2.27V1.1h3.53l4.25,12.19h.07l4.38-12.19h3.54v15.32h-2.41v-7.58c0-.76.02-1.76.06-3,0-1.22.07-2,.09-2.22h-.08l-4.6,12.77-2.21.03Z" fill="#fff" stroke-width="0"/><path d="M340.14,5.73c.09,1.41-.49,2.77-1.57,3.68-1.3.93-2.88,1.38-4.48,1.28h-1.59v5.73h-2.5V1.1h4.41c1.52-.11,3.04.3,4.3,1.17.99.87,1.52,2.15,1.43,3.46ZM332.5,8.58h1.33c.99.08,1.98-.16,2.83-.67.63-.5.96-1.29.9-2.09.07-.76-.23-1.5-.8-2-.74-.49-1.63-.72-2.52-.65h-1.74v5.41Z" fill="#fff" stroke-width="0"/><path d="M356,1.1v9.9c.03,1.05-.23,2.08-.73,3-.48.87-1.22,1.57-2.11,2-1.03.48-2.15.72-3.29.69-1.62.1-3.21-.44-4.43-1.51-1.1-1.1-1.68-2.62-1.58-4.18V1.1h2.52v9.69c-.09,1.01.23,2.02.88,2.8.74.66,1.71.98,2.7.9,2.36,0,3.54-1.24,3.54-3.72V1.1h2.5Z" fill="#fff" stroke-width="0"/><path d="M366.38,16.42h-2.51V3.25h-4.5V1.1h11.51v2.15h-4.5v13.17Z" fill="#fff" stroke-width="0"/><path d="M382.56,16.42l-1.56-4.25h-5.86l-1.5,4.25h-2.64l5.76-15.42h2.73l5.73,15.38-2.66.04ZM380.37,10l-1.44-4.17c-.11-.28-.25-.72-.44-1.32s-.31-1-.38-1.32c-.21.95-.49,1.89-.83,2.81l-1.38,4h4.47Z" fill="#fff" stroke-width="0"/><path d="M392.37,16.42h-2.5V3.25h-4.51V1.1h11.52v2.15h-4.51v13.17Z" fill="#fff" stroke-width="0"/><path d="M400.31,16.42V1.1h2.51v15.32h-2.51Z" fill="#fff" stroke-width="0"/><path d="M421.45,8.74c.13,2.1-.54,4.18-1.87,5.81-1.37,1.44-3.31,2.2-5.29,2.08-1.98.12-3.91-.64-5.29-2.06-1.33-1.65-2-3.74-1.86-5.85-.15-2.11.52-4.19,1.86-5.83,1.41-1.4,3.36-2.13,5.34-2,1.98-.12,3.91.63,5.28,2.06,1.31,1.63,1.96,3.7,1.83,5.79ZM409.76,8.74c-.1,1.51.3,3,1.14,4.26,1.77,1.87,4.72,1.94,6.59.17.06-.06.12-.11.17-.17.84-1.28,1.23-2.79,1.13-4.31.1-1.51-.29-3.01-1.12-4.28-.83-.98-2.08-1.51-3.36-1.41-1.3-.09-2.57.45-3.4,1.45-.85,1.26-1.26,2.77-1.15,4.29Z" fill="#fff" stroke-width="0"/><path d="M438.45,16.42h-3.07l-7.53-12.21h-.09l.06.68c.09,1.3.14,2.49.14,3.57v8h-2.27V1.1h3l7.51,12.15h.06c0-.17,0-.75-.08-1.76s-.06-1.8-.06-2.36V1.13h2.29l.04,15.29Z" fill="#fff" stroke-width="0"/><path d="M453.25,16.42l-1.53-4.25h-5.86l-1.5,4.25h-2.64l5.73-15.42h2.73l5.73,15.38-2.66.04ZM451.06,10l-1.44-4.17c-.1-.28-.25-.72-.43-1.32s-.32-1-.39-1.32c-.2.95-.47,1.89-.8,2.81l-1.39,4h4.45Z" fill="#fff" stroke-width="0"/><path d="M459.19,16.42V1.1h2.5v13.17h6.49v2.15h-8.99Z" fill="#fff" stroke-width="0"/><path d="M160.79,42.83h-8.67v-15.32h8.67v2.12h-6.16v4.17h5.77v2.1h-5.77v4.81h6.16v2.12Z" fill="#fff" stroke-width="0"/><path d="M174.46,27.51h2.59l-5.36,15.32h-2.64l-5.35-15.32h2.58l3.2,9.53c.17.45.34,1,.53,1.75s.31,1.25.37,1.6c.09-.53.23-1.14.42-1.84s.34-1.22.46-1.55l3.2-9.49Z" fill="#fff" stroke-width="0"/><path d="M193.4,35.15c.14,2.12-.53,4.21-1.87,5.85-3,2.75-7.62,2.75-10.62,0-1.33-1.65-2-3.74-1.86-5.85-.14-2.11.53-4.2,1.87-5.83,1.41-1.41,3.35-2.13,5.34-2,1.98-.12,3.91.64,5.28,2.07,1.32,1.62,1.98,3.68,1.86,5.76ZM181.71,35.15c-.11,1.52.3,3.03,1.14,4.29,1.77,1.87,4.72,1.94,6.59.17.06-.06.12-.11.17-.17.84-1.28,1.23-2.79,1.13-4.31.11-1.51-.29-3.01-1.12-4.27-.82-1-2.07-1.54-3.36-1.46-1.3-.09-2.57.45-3.4,1.46-.86,1.26-1.26,2.77-1.15,4.29h0Z" fill="#fff" stroke-width="0"/><path d="M197.64,42.83v-15.32h2.5v13.17h6.49v2.15h-8.99Z" fill="#fff" stroke-width="0"/><path d="M222,27.51v9.91c.03,1.05-.22,2.08-.73,3-.48.86-1.21,1.56-2.1,2-1.03.48-2.16.71-3.3.68-1.62.1-3.21-.44-4.43-1.51-1.09-1.1-1.66-2.61-1.58-4.15v-9.93h2.51v9.7c-.08,1.01.23,2.01.88,2.79.74.66,1.72.98,2.71.9,2.36,0,3.54-1.24,3.54-3.72v-9.67h2.5Z" fill="#fff" stroke-width="0"/><path d="M232.34,42.83h-2.5v-13.17h-4.51v-2.15h11.52v2.15h-4.51v13.17Z" fill="#fff" stroke-width="0"/><path d="M240.28,42.83v-15.32h2.51v15.32h-2.51Z" fill="#fff" stroke-width="0"/><path d="M261.43,35.15c.13,2.12-.53,4.2-1.87,5.85-3.01,2.75-7.62,2.75-10.63,0-1.33-1.65-2-3.74-1.86-5.85-.14-2.11.53-4.19,1.87-5.83,1.41-1.4,3.36-2.13,5.34-2,1.98-.12,3.91.64,5.28,2.07,1.32,1.62,1.99,3.67,1.87,5.76ZM249.73,35.15c-.11,1.52.3,3.03,1.14,4.29,1.77,1.87,4.72,1.94,6.59.17.06-.06.12-.11.17-.17.85-1.27,1.25-2.79,1.14-4.31.1-1.51-.29-3.01-1.13-4.27-.82-1-2.07-1.54-3.36-1.46-1.3-.08-2.57.46-3.4,1.46-.85,1.26-1.26,2.77-1.15,4.29Z" fill="#fff" stroke-width="0"/><path d="M278.42,42.83h-3.07l-7.53-12.21h-.08l.05.69c.1,1.3.14,2.48.14,3.56v8h-2.27v-15.36h3l7.51,12.15h.07c0-.16,0-.75-.09-1.76s-.06-1.8-.06-2.36v-8h2.29l.04,15.29Z" fill="#fff" stroke-width="0"/><path d="M293.22,42.83l-1.53-4.25h-5.86l-1.5,4.25h-2.64l5.73-15.38h2.73l5.73,15.38h-2.66ZM291,36.42l-1.44-4.17c-.1-.28-.25-.72-.43-1.32s-.31-1-.38-1.32c-.22.96-.5,1.9-.83,2.82l-1.38,4h4.46Z" fill="#fff" stroke-width="0"/><path d="M301.66,36.71v6.12h-2.5v-15.32h4.33c1.55-.12,3.09.27,4.39,1.11.99.83,1.52,2.09,1.42,3.38.02,1.88-1.2,3.54-3,4.07l4.33,6.78h-2.85l-3.67-6.12-2.45-.02ZM301.66,34.64h1.75c.89.07,1.78-.16,2.53-.65.54-.49.84-1.2.79-1.93.06-.73-.26-1.43-.85-1.86-.78-.43-1.67-.63-2.56-.57h-1.66v5.01Z" fill="#fff" stroke-width="0"/><path d="M318,34.5l3.63-7h2.72l-5.1,9.38v5.94h-2.52v-5.82l-5.08-9.46h2.73l3.62,6.96Z" fill="#fff" stroke-width="0"/><path d="M334.05,42.83v-15.32h2.51v15.32h-2.51Z" fill="#fff" stroke-width="0"/><path d="M354.26,42.83h-3.07l-7.53-12.21h-.09l.06.69c.1,1.3.14,2.48.14,3.56v8h-2.27v-15.36h3l7.51,12.15h.07c0-.16-.05-.75-.09-1.76s-.06-1.8-.06-2.36v-8h2.29l.04,15.29Z" fill="#fff" stroke-width="0"/><path d="M364.7,42.83h-2.51v-13.17h-4.51v-2.15h11.52v2.15h-4.5v13.17Z" fill="#fff" stroke-width="0"/><path d="M381.3,42.83h-8.67v-15.32h8.67v2.12h-6.16v4.17h5.77v2.1h-5.77v4.81h6.16v2.12Z" fill="#fff" stroke-width="0"/><path d="M385.5,42.83v-15.32h2.5v13.17h6.48v2.15h-8.98Z" fill="#fff" stroke-width="0"/><path d="M398.08,42.83v-15.32h2.5v13.17h6.49v2.15h-8.99Z" fill="#fff" stroke-width="0"/><path d="M410.65,42.83v-15.32h2.51v15.32h-2.51Z" fill="#fff" stroke-width="0"/><path d="M424.43,34.52h5.64v7.69c-.87.29-1.76.5-2.66.64-.91.13-1.83.2-2.75.19-2,.13-3.96-.61-5.37-2.04-1.34-1.63-2.01-3.71-1.88-5.81-.12-2.14.65-4.23,2.12-5.79,1.59-1.46,3.7-2.21,5.86-2.09,1.56,0,3.11.31,4.55.92l-.88,2.09c-1.17-.55-2.44-.85-3.73-.86-1.46-.08-2.87.49-3.88,1.54-1,1.16-1.52,2.66-1.45,4.19-.11,1.53.34,3.05,1.28,4.27.96,1.02,2.32,1.56,3.72,1.46.87,0,1.75-.11,2.6-.3v-3.95h-3.17v-2.15Z" fill="#fff" stroke-width="0"/><path d="M443.39,42.83h-8.66v-15.32h8.66v2.12h-6.16v4.17h5.77v2.1h-5.77v4.81h6.16v2.12Z" fill="#fff" stroke-width="0"/><path d="M460.36,42.83h-3.07l-7.54-12.21h-.08l.05.69c.1,1.3.15,2.48.15,3.56v8h-2.27v-15.36h3l7.52,12.15h.06c0-.16,0-.75-.08-1.76s-.07-1.8-.07-2.36v-8h2.3l.03,15.29Z" fill="#fff" stroke-width="0"/><path d="M471.89,29.44c-1.31-.06-2.57.51-3.4,1.53-.88,1.22-1.32,2.71-1.23,4.22-.1,1.52.32,3.03,1.19,4.27.86.99,2.13,1.52,3.44,1.44.63,0,1.27-.06,1.89-.19.6-.13,1.24-.29,1.89-.5v2.15c-1.31.47-2.69.7-4.08.68-1.94.14-3.83-.6-5.17-2-1.3-1.65-1.94-3.73-1.8-5.83-.03-1.44.27-2.87.87-4.18.53-1.16,1.41-2.13,2.51-2.78,1.18-.67,2.53-1.02,3.89-1,1.51-.01,2.99.33,4.34,1l-.9,2.08c-.53-.25-1.08-.46-1.64-.64-.58-.18-1.19-.26-1.8-.25Z" fill="#fff" stroke-width="0"/><path d="M488.54,42.83h-8.66v-15.32h8.66v2.12h-6.16v4.17h5.78v2.1h-5.78v4.81h6.16v2.12Z" fill="#fff" stroke-width="0"/><rect x="136.53" y=".98" width=".55" height="42.33" fill="#fff" stroke-width="0"/></svg>